<?xml version="1.0" encoding="UTF-8" standalone="no"?>
<!-- Created with Inkscape (http://www.inkscape.org/) -->

<svg
   width="14.347942mm"
   height="14.347942mm"
   viewBox="0 0 14.347942 14.347942"
   version="1.1"
   id="svg1"
   inkscape:version="1.4.2 (2aeb623e1d, 2025-05-12)"
   sodipodi:docname="favicon.svg"
   xmlns:inkscape="http://www.inkscape.org/namespaces/inkscape"
   xmlns:sodipodi="http://sodipodi.sourceforge.net/DTD/sodipodi-0.dtd"
   xmlns="http://www.w3.org/2000/svg"
   xmlns:svg="http://www.w3.org/2000/svg">
  <sodipodi:namedview
     id="namedview1"
     pagecolor="#ffffff"
     bordercolor="#000000"
     borderopacity="0.25"
     inkscape:showpageshadow="2"
     inkscape:pageopacity="0.0"
     inkscape:pagecheckerboard="0"
     inkscape:deskcolor="#d1d1d1"
     inkscape:document-units="mm"
     inkscape:zoom="8.1614037"
     inkscape:cx="43.497419"
     inkscape:cy="35.104255"
     inkscape:window-width="1920"
     inkscape:window-height="1081"
     inkscape:window-x="0"
     inkscape:window-y="0"
     inkscape:window-maximized="1"
     inkscape:current-layer="g3" />
  <defs
     id="defs1" />
  <g
     inkscape:label="Layer 1"
     inkscape:groupmode="layer"
     id="layer1"
     transform="translate(-127.52628,-143.95018)">
    <g
       id="g3"
       transform="matrix(0.24264698,0,0,0.34213702,144.77482,29.15675)"
       style="display:inline;mix-blend-mode:normal;stroke:#ffffff;stroke-width:3.69279;stroke-dasharray:none;stroke-opacity:1">
      <path
         id="rect1"
         style="fill:#210cfb;stroke:none;stroke-width:0.905652"
         d="m -41.519449,335.51888 c 0,0 5.283532,9.93374 10.421112,13.57736 5.137589,3.64363 19.144355,7.39076 19.144355,7.39076 0,0 -14.006766,3.74713 -19.144355,7.39076 -5.13758,3.64363 -10.421112,13.57736 -10.421112,13.57736 0,0 -5.283531,-9.93373 -10.421112,-13.57736 -5.137588,-3.64363 -19.144355,-7.39076 -19.144355,-7.39076 0,0 14.006767,-3.74713 19.144355,-7.39076 5.137581,-3.64362 10.421112,-13.57736 10.421112,-13.57736 z"
         sodipodi:nodetypes="cacacacac" />
      <path
         id="rect1-9-3"
         style="display:inline;mix-blend-mode:normal;fill:#ffffff;fill-opacity:1;stroke:none;stroke-width:0.391667;stroke-dasharray:none;stroke-opacity:1"
         d="m -47.083512,348.87382 c 0,0 0.51688,5.33437 2.979427,7.06338 2.417628,1.69747 9.806736,2.0047 9.806736,2.0047 0,0 -7.222216,0.59478 -9.607433,2.29202 -2.369414,1.68598 -3.17873,6.77605 -3.17873,6.77605 0,0 -0.329629,-4.85002 -2.481168,-6.49336 -2.4781,-1.89276 -10.304994,-2.57471 -10.304994,-2.57471 0,0 7.513823,-0.27948 9.952955,-2.00933 2.439127,-1.72987 2.833207,-7.05875 2.833207,-7.05875 z"
         sodipodi:nodetypes="cacacacac" />
    </g>
  </g>
</svg>
