<?xml version="1.0" encoding="UTF-8" standalone="no"?>
<!-- Created with Inkscape (http://www.inkscape.org/) -->

<svg
   width="14.347942mm"
   height="14.347942mm"
   viewBox="0 0 14.347942 14.347942"
   version="1.1"
   id="svg1"
   inkscape:version="1.4.2 (2aeb623e1d, 2025-05-12)"
   sodipodi:docname="favicon.svg"
   xmlns:inkscape="http://www.inkscape.org/namespaces/inkscape"
   xmlns:sodipodi="http://sodipodi.sourceforge.net/DTD/sodipodi-0.dtd"
   xmlns="http://www.w3.org/2000/svg"
   xmlns:svg="http://www.w3.org/2000/svg">
  <sodipodi:namedview
     id="namedview1"
     pagecolor="#ffffff"
     bordercolor="#000000"
     borderopacity="0.25"
     inkscape:showpageshadow="2"
     inkscape:pageopacity="0.0"
     inkscape:pagecheckerboard="0"
     inkscape:deskcolor="#d1d1d1"
     inkscape:document-units="mm"
     inkscape:zoom="8.1614037"
     inkscape:cx="43.49742"
     inkscape:cy="35.104255"
     inkscape:window-width="1920"
     inkscape:window-height="1081"
     inkscape:window-x="0"
     inkscape:window-y="0"
     inkscape:window-maximized="1"
     inkscape:current-layer="g3" />
  <defs
     id="defs1" />
  <g
     inkscape:label="Layer 1"
     inkscape:groupmode="layer"
     id="layer1"
     transform="translate(-127.52628,-143.95018)">
    <g
       id="g3"
       transform="matrix(0.24264698,0,0,0.34213702,144.77482,29.15675)"
       style="display:inline;mix-blend-mode:normal;stroke:#ffffff;stroke-width:3.69279;stroke-dasharray:none;stroke-opacity:1">
      <path
         id="rect1"
         style="fill:#210cfb;stroke:none;stroke-width:0.932256"
         transform="matrix(0.81568707,0.57849339,-0.81568707,0.57849339,0,0)"
         d="m 264.54309,315.44431 c 0,0 11.82457,5.34717 18.12304,5.34717 6.29848,0 18.12305,-5.34717 18.12305,-5.34717 0,0 -5.34717,11.82457 -5.34717,18.12305 0,6.29847 5.34717,18.12304 5.34717,18.12304 0,0 -11.82457,-5.34717 -18.12304,-5.34717 -6.29848,0 -18.12305,5.34717 -18.12305,5.34717 0,0 5.34717,-11.82457 5.34717,-18.12305 0,-6.29847 -5.34717,-18.12304 -5.34717,-18.12304 z"
         sodipodi:nodetypes="cacacacac" />
      <path
         id="rect1-9"
         style="display:inline;mix-blend-mode:normal;fill:#ffffff;fill-opacity:1;stroke:none;stroke-width:0.143543;stroke-dasharray:none;stroke-opacity:1"
         d="m -50.394403,349.40874 c 0,0 0.189433,1.95501 1.091939,2.58868 0.886044,0.62211 3.594099,0.73471 3.594099,0.73471 0,0 -2.646891,0.21798 -3.521056,0.84001 -0.868373,0.6179 -1.164982,2.48337 -1.164982,2.48337 0,0 -0.120806,-1.7775 -0.90933,-2.37977 -0.908206,-0.69368 -3.776707,-0.94361 -3.776707,-0.94361 0,0 2.753763,-0.10243 3.647687,-0.73641 0.893923,-0.63398 1.03835,-2.58698 1.03835,-2.58698 z"
         sodipodi:nodetypes="cacacacac" />
      <path
         id="rect1-9-3"
         style="display:inline;mix-blend-mode:normal;fill:#ffffff;fill-opacity:1;stroke:none;stroke-width:0.236148;stroke-dasharray:none;stroke-opacity:1"
         d="m -42.797916,358.48661 c 0,0 0.311643,3.21626 1.796389,4.25873 1.457663,1.02346 5.912785,1.2087 5.912785,1.2087 0,0 -4.354498,0.35861 -5.792619,1.38193 -1.428593,1.01653 -1.916555,4.08549 -1.916555,4.08549 0,0 -0.198743,-2.92423 -1.495973,-3.91505 -1.494123,-1.1412 -6.2132,-1.55237 -6.2132,-1.55237 0,0 4.530317,-0.16851 6.000945,-1.21149 1.470625,-1.04299 1.708228,-4.25594 1.708228,-4.25594 z"
         sodipodi:nodetypes="cacacacac" />
      <path
         id="rect1-9-3-1"
         style="display:inline;mix-blend-mode:normal;fill:#ffffff;fill-opacity:1;stroke:none;stroke-width:0.0885589;stroke-dasharray:none;stroke-opacity:1"
         d="m -40.106349,343.30739 c 0,0 0.116871,1.20614 0.673672,1.59708 0.546644,0.38382 2.217378,0.45328 2.217378,0.45328 0,0 -1.632999,0.13449 -2.172315,0.51825 -0.535742,0.38121 -0.718735,1.53211 -0.718735,1.53211 0,0 -0.07453,-1.09662 -0.561011,-1.46819 -0.560318,-0.42797 -2.330039,-0.58217 -2.330039,-0.58217 0,0 1.698934,-0.0632 2.25044,-0.45432 0.551505,-0.39114 0.64061,-1.59604 0.64061,-1.59604 z"
         sodipodi:nodetypes="cacacacac" />
      <path
         id="rect1-9-3-1-4"
         style="display:inline;mix-blend-mode:normal;fill:#ffffff;fill-opacity:1;stroke:none;stroke-width:0.0885589;stroke-dasharray:none;stroke-opacity:1"
         d="m -31.352777,350.17518 c 0,0 0.116871,1.20614 0.673672,1.59708 0.546644,0.38382 2.217378,0.45328 2.217378,0.45328 0,0 -1.632999,0.13449 -2.172315,0.51825 -0.535742,0.38121 -0.718735,1.53211 -0.718735,1.53211 0,0 -0.07453,-1.09662 -0.561011,-1.46819 -0.560318,-0.42797 -2.330039,-0.58217 -2.330039,-0.58217 0,0 1.698934,-0.0632 2.25044,-0.45432 0.551505,-0.39114 0.64061,-1.59604 0.64061,-1.59604 z"
         sodipodi:nodetypes="cacacacac" />
      <path
         id="rect1-9-3-1-8"
         style="display:inline;mix-blend-mode:normal;fill:#ffffff;fill-opacity:1;stroke:none;stroke-width:0.1638;stroke-dasharray:none;stroke-opacity:1"
         d="m -36.589891,353.04532 c 0,0 0.216167,2.2309 1.246039,2.95399 1.011084,0.70993 4.101311,0.8384 4.101311,0.8384 0,0 -3.020431,0.24876 -4.017962,0.95857 -0.99092,0.70509 -1.329388,2.83382 -1.329388,2.83382 0,0 -0.137852,-2.02833 -1.037658,-2.7156 -1.036377,-0.79158 -4.309692,-1.07679 -4.309692,-1.07679 0,0 3.142386,-0.1169 4.162464,-0.84032 1.020075,-0.72346 1.184886,-2.95207 1.184886,-2.95207 z"
         sodipodi:nodetypes="cacacacac" />
    </g>
  </g>
</svg>
