<?xml version="1.0" encoding="UTF-8" standalone="no"?>
<!-- Created with Inkscape (http://www.inkscape.org/) -->

<svg
   width="79.24984"
   height="24.161486"
   viewBox="0 0 20.968187 6.392726"
   version="1.1"
   id="svg1"
   inkscape:version="1.4.3 (fcd0343856, 2026-01-01)"
   sodipodi:docname="signature-blue.svg"
   xmlns:inkscape="http://www.inkscape.org/namespaces/inkscape"
   xmlns:sodipodi="http://sodipodi.sourceforge.net/DTD/sodipodi-0.dtd"
   xmlns="http://www.w3.org/2000/svg"
   xmlns:svg="http://www.w3.org/2000/svg">
  <sodipodi:namedview
     id="namedview1"
     pagecolor="#ffffff"
     bordercolor="#000000"
     borderopacity="0.25"
     inkscape:showpageshadow="2"
     inkscape:pageopacity="0.0"
     inkscape:pagecheckerboard="0"
     inkscape:deskcolor="#d1d1d1"
     inkscape:document-units="mm"
     inkscape:zoom="1"
     inkscape:cx="107"
     inkscape:cy="52.5"
     inkscape:window-width="1920"
     inkscape:window-height="1081"
     inkscape:window-x="0"
     inkscape:window-y="0"
     inkscape:window-maximized="1"
     inkscape:current-layer="layer1" />
  <defs
     id="defs1" />
  <g
     inkscape:label="Layer 1"
     inkscape:groupmode="layer"
     id="layer1"
     transform="translate(-135.72067,-147.63751)">
    <g
       id="g3"
       transform="matrix(0.15362902,0,0,0.21661994,145.29941,73.795465)"
       style="display:inline;mix-blend-mode:normal;fill:none;fill-opacity:1;stroke:#0001f4;stroke-width:3.69279;stroke-dasharray:none;stroke-opacity:1">
      <path
         id="path3-2"
         style="fill:none;fill-opacity:1;stroke:#0001f4;stroke-width:3.69279;stroke-linecap:round;stroke-linejoin:round;stroke-dasharray:none;stroke-opacity:1"
         d="m 55.037914,357.09541 c 0,0 3.93759,2.54985 7.06725,2.52897 5.04878,-0.0337 10.23664,-3.27063 10.1841,-8.58511 -0.0738,-7.46276 -8.39473,-7.27276 -12.42423,-5.15196 -6.26464,3.29719 -8.7014,7.84126 -11.21042,10.55097 -2.74763,2.96745 -7.78646,8.17255 -13.1887,10.33118 -5.35536,2.13987 -9.45191,1.75844 -9.45191,1.75844 0,0 7.96577,-1.34096 10.10181,-5.68909 0.8928,-1.81738 0.87141,-3.66643 -0.32019,-5.52126 -0.71149,-1.10755 -5.12306,-2.97154 -8.98124,-1.38335 -3.81517,1.57049 -6.13473,3.27283 -6.13473,3.27283 0,0 8.96126,-6.62772 4.89472,-13.44187 -3.18856,-5.34298 -11.2426,-0.62727 -15.52894,4.53831 -4.2863297,5.16558 -6.0669097,7.99323 -6.0669097,7.99323 m -47.2302303,-4.11497 c 0,0 -3.93757,-2.54984 -7.06723,-2.52895 -5.0488,0.0337 -10.23667,3.27061 -10.1841,8.58511 0.0738,7.46275 8.39472,7.27275 12.42423,5.15195 6.26464,-3.29719 8.70141,-7.84126 11.21041,-10.55097 2.74764,-2.96745 7.78645,-8.17256 13.18871,-10.33117 5.35536,-2.13988 9.4519,-1.75847 9.4519,-1.75847 0,0 -7.96577,1.34097 -10.10181,5.6891 -0.8928,1.8174 -0.87141,3.66645 0.32019,5.52128 0.71152,1.10754 5.12304,2.97154 8.98123,1.38334 3.8152,-1.5705 6.1347303,-3.27281 6.1347303,-3.27281 0,0 -8.9612403,6.62771 -4.8947103,13.44187 3.18856,5.34297 11.2425903,0.62726 15.5289303,-4.53833 4.28633,-5.16557 6.06691,-7.99323 6.06691,-7.99323" />
    </g>
  </g>
</svg>
